<mxfile host="app.diagrams.net" modified="2024-05-16T00:52:13.251Z" agent="Mozilla/5.0 (Windows NT 10.0; Win64; x64) AppleWebKit/537.36 (KHTML, like Gecko) Chrome/124.0.0.0 Safari/537.36 Edg/124.0.0.0" etag="EO6XPHFlQMjC7yY0s8na" version="24.4.2" type="google">
  <diagram name="Atividade 1" id="VT6tpNMSwBBivp5OsSgb">
    <mxGraphModel dx="1042" dy="569" grid="1" gridSize="10" guides="1" tooltips="1" connect="1" arrows="1" fold="1" page="1" pageScale="1" pageWidth="827" pageHeight="1169" math="0" shadow="0">
      <root>
        <mxCell id="0" />
        <mxCell id="1" parent="0" />
        <mxCell id="nFjdNCl31MVFiGdKLd3Q-1" value="" style="strokeColor=#666666;html=1;verticalLabelPosition=bottom;labelBackgroundColor=#ffffff;verticalAlign=top;outlineConnect=0;shadow=0;dashed=0;shape=mxgraph.rackGeneral.rackCabinet3;fillColor2=#f4f4f4;container=1;collapsible=0;childLayout=rack;allowGaps=1;marginLeft=9;marginRight=9;marginTop=21;marginBottom=22;textColor=#666666;numDisp=off;" parent="1" vertex="1">
          <mxGeometry x="310" y="170" width="180" height="219" as="geometry" />
        </mxCell>
        <mxCell id="nFjdNCl31MVFiGdKLd3Q-38" style="edgeStyle=orthogonalEdgeStyle;rounded=0;orthogonalLoop=1;jettySize=auto;html=1;strokeColor=#3399FF;" parent="nFjdNCl31MVFiGdKLd3Q-1" target="nFjdNCl31MVFiGdKLd3Q-46" edge="1">
          <mxGeometry relative="1" as="geometry">
            <mxPoint x="140.86799999999994" y="40.19499999999999" as="targetPoint" />
            <mxPoint x="430" y="31.80000000000001" as="sourcePoint" />
            <Array as="points">
              <mxPoint x="430" y="33" />
              <mxPoint x="141" y="33" />
            </Array>
          </mxGeometry>
        </mxCell>
        <mxCell id="nFjdNCl31MVFiGdKLd3Q-17" value="" style="fontColor=#0066CC;verticalAlign=top;verticalLabelPosition=bottom;labelPosition=center;align=center;html=1;outlineConnect=0;fillColor=#CCCCCC;strokeColor=#6881B3;gradientColor=none;gradientDirection=north;strokeWidth=2;shape=mxgraph.networks.modem;" parent="nFjdNCl31MVFiGdKLd3Q-1" vertex="1">
          <mxGeometry x="9" y="21" width="162" height="30" as="geometry" />
        </mxCell>
        <mxCell id="nFjdNCl31MVFiGdKLd3Q-16" value="" style="shape=mxgraph.rack.cisco.cisco_asr_1001_router;html=1;labelPosition=right;align=left;spacingLeft=15;dashed=0;shadow=0;fillColor=#ffffff;" parent="nFjdNCl31MVFiGdKLd3Q-1" vertex="1">
          <mxGeometry x="9" y="51" width="162" height="15" as="geometry" />
        </mxCell>
        <mxCell id="nFjdNCl31MVFiGdKLd3Q-14" value="" style="html=1;verticalLabelPosition=bottom;verticalAlign=top;outlineConnect=0;shadow=0;dashed=0;shape=mxgraph.rack.hpe_aruba.switches.j9854a_2530_24g_poeplus_2sfpplus_switch;" parent="nFjdNCl31MVFiGdKLd3Q-1" vertex="1">
          <mxGeometry x="9" y="66" width="162" height="15" as="geometry" />
        </mxCell>
        <mxCell id="nFjdNCl31MVFiGdKLd3Q-35" style="edgeStyle=orthogonalEdgeStyle;rounded=0;orthogonalLoop=1;jettySize=auto;html=1;strokeColor=#3399FF;" parent="nFjdNCl31MVFiGdKLd3Q-1" edge="1">
          <mxGeometry relative="1" as="geometry">
            <mxPoint x="70" y="-110" as="sourcePoint" />
            <mxPoint x="70" y="120" as="targetPoint" />
          </mxGeometry>
        </mxCell>
        <mxCell id="nFjdNCl31MVFiGdKLd3Q-46" value="" style="strokeColor=#666666;html=1;labelPosition=right;align=left;spacingLeft=15;shadow=0;dashed=0;outlineConnect=0;shape=mxgraph.rack.general.cat5e_enhanced_patch_panel_48_ports;" parent="nFjdNCl31MVFiGdKLd3Q-1" vertex="1">
          <mxGeometry x="9" y="120" width="162" height="30" as="geometry" />
        </mxCell>
        <mxCell id="nFjdNCl31MVFiGdKLd3Q-15" value="" style="strokeColor=#666666;html=1;labelPosition=right;align=left;spacingLeft=15;shadow=0;dashed=0;outlineConnect=0;shape=mxgraph.rack.general.cat5e_enhanced_patch_panel_48_ports;" parent="nFjdNCl31MVFiGdKLd3Q-1" vertex="1">
          <mxGeometry x="9" y="150" width="162" height="30" as="geometry" />
        </mxCell>
        <mxCell id="nFjdNCl31MVFiGdKLd3Q-21" style="edgeStyle=orthogonalEdgeStyle;rounded=0;orthogonalLoop=1;jettySize=auto;html=1;strokeColor=#3399FF;" parent="nFjdNCl31MVFiGdKLd3Q-1" edge="1">
          <mxGeometry relative="1" as="geometry">
            <mxPoint x="-200" y="306" as="sourcePoint" />
            <mxPoint x="40" y="180" as="targetPoint" />
          </mxGeometry>
        </mxCell>
        <mxCell id="nFjdNCl31MVFiGdKLd3Q-28" style="edgeStyle=orthogonalEdgeStyle;rounded=0;orthogonalLoop=1;jettySize=auto;html=1;strokeColor=#3399FF;" parent="1" source="nFjdNCl31MVFiGdKLd3Q-2" target="nFjdNCl31MVFiGdKLd3Q-15" edge="1">
          <mxGeometry relative="1" as="geometry">
            <Array as="points">
              <mxPoint x="400" y="560" />
            </Array>
          </mxGeometry>
        </mxCell>
        <mxCell id="nFjdNCl31MVFiGdKLd3Q-2" value="" style="image;html=1;image=img/lib/clip_art/computers/Netbook_128x128.png" parent="1" vertex="1">
          <mxGeometry x="650" y="510" width="80" height="80" as="geometry" />
        </mxCell>
        <mxCell id="nFjdNCl31MVFiGdKLd3Q-4" value="" style="image;html=1;image=img/lib/clip_art/computers/Netbook_128x128.png" parent="1" vertex="1">
          <mxGeometry x="747" y="170" width="80" height="80" as="geometry" />
        </mxCell>
        <mxCell id="nFjdNCl31MVFiGdKLd3Q-22" style="edgeStyle=orthogonalEdgeStyle;rounded=0;orthogonalLoop=1;jettySize=auto;html=1;strokeColor=#3399FF;" parent="1" target="nFjdNCl31MVFiGdKLd3Q-15" edge="1">
          <mxGeometry relative="1" as="geometry">
            <mxPoint x="110" y="555" as="sourcePoint" />
            <mxPoint x="378" y="385" as="targetPoint" />
            <Array as="points">
              <mxPoint x="378" y="555" />
            </Array>
          </mxGeometry>
        </mxCell>
        <mxCell id="nFjdNCl31MVFiGdKLd3Q-5" value="" style="image;html=1;image=img/lib/clip_art/computers/Netbook_128x128.png" parent="1" vertex="1">
          <mxGeometry x="50" y="500" width="80" height="80" as="geometry" />
        </mxCell>
        <mxCell id="nFjdNCl31MVFiGdKLd3Q-43" style="edgeStyle=orthogonalEdgeStyle;rounded=0;orthogonalLoop=1;jettySize=auto;html=1;strokeColor=#3399FF;" parent="1" target="nFjdNCl31MVFiGdKLd3Q-15" edge="1">
          <mxGeometry relative="1" as="geometry">
            <mxPoint x="270" y="250" as="targetPoint" />
            <mxPoint x="80" y="240" as="sourcePoint" />
            <Array as="points">
              <mxPoint x="80" y="320" />
            </Array>
          </mxGeometry>
        </mxCell>
        <mxCell id="nFjdNCl31MVFiGdKLd3Q-45" style="edgeStyle=orthogonalEdgeStyle;rounded=0;orthogonalLoop=1;jettySize=auto;html=1;strokeColor=#3399FF;" parent="1" source="nFjdNCl31MVFiGdKLd3Q-6" target="nFjdNCl31MVFiGdKLd3Q-46" edge="1">
          <mxGeometry relative="1" as="geometry">
            <mxPoint x="300" y="300" as="targetPoint" />
            <Array as="points">
              <mxPoint x="130" y="300" />
            </Array>
          </mxGeometry>
        </mxCell>
        <mxCell id="nFjdNCl31MVFiGdKLd3Q-6" value="" style="image;html=1;image=img/lib/clip_art/computers/Netbook_128x128.png" parent="1" vertex="1">
          <mxGeometry x="90" y="120" width="80" height="80" as="geometry" />
        </mxCell>
        <mxCell id="nFjdNCl31MVFiGdKLd3Q-7" value="" style="image;html=1;image=img/lib/clip_art/computers/Netbook_128x128.png" parent="1" vertex="1">
          <mxGeometry x="40" y="160" width="80" height="80" as="geometry" />
        </mxCell>
        <mxCell id="nFjdNCl31MVFiGdKLd3Q-31" style="edgeStyle=orthogonalEdgeStyle;rounded=0;orthogonalLoop=1;jettySize=auto;html=1;strokeColor=#3399FF;" parent="1" target="nFjdNCl31MVFiGdKLd3Q-15" edge="1">
          <mxGeometry relative="1" as="geometry">
            <mxPoint x="440" y="330" as="targetPoint" />
            <mxPoint x="730" y="480" as="sourcePoint" />
            <Array as="points">
              <mxPoint x="440" y="480" />
            </Array>
          </mxGeometry>
        </mxCell>
        <mxCell id="nFjdNCl31MVFiGdKLd3Q-8" value="" style="image;html=1;image=img/lib/clip_art/computers/Netbook_128x128.png" parent="1" vertex="1">
          <mxGeometry x="740" y="430" width="80" height="80" as="geometry" />
        </mxCell>
        <mxCell id="nFjdNCl31MVFiGdKLd3Q-9" value="" style="image;html=1;image=img/lib/clip_art/computers/Netbook_128x128.png" parent="1" vertex="1">
          <mxGeometry x="30" y="440" width="80" height="80" as="geometry" />
        </mxCell>
        <mxCell id="nFjdNCl31MVFiGdKLd3Q-40" style="edgeStyle=orthogonalEdgeStyle;rounded=0;orthogonalLoop=1;jettySize=auto;html=1;strokeColor=#3399FF;exitX=0.25;exitY=1;exitDx=0;exitDy=0;" parent="1" source="nFjdNCl31MVFiGdKLd3Q-48" edge="1">
          <mxGeometry relative="1" as="geometry">
            <mxPoint x="400" y="290" as="targetPoint" />
            <mxPoint x="620" y="110" as="sourcePoint" />
            <Array as="points">
              <mxPoint x="620" y="120" />
              <mxPoint x="400" y="120" />
            </Array>
          </mxGeometry>
        </mxCell>
        <mxCell id="nFjdNCl31MVFiGdKLd3Q-53" style="edgeStyle=orthogonalEdgeStyle;rounded=0;orthogonalLoop=1;jettySize=auto;html=1;strokeColor=#3399FF;" parent="1" source="nFjdNCl31MVFiGdKLd3Q-11" target="nFjdNCl31MVFiGdKLd3Q-46" edge="1">
          <mxGeometry relative="1" as="geometry">
            <mxPoint x="670" y="230" as="targetPoint" />
            <Array as="points">
              <mxPoint x="787" y="160" />
              <mxPoint x="430" y="160" />
            </Array>
          </mxGeometry>
        </mxCell>
        <mxCell id="nFjdNCl31MVFiGdKLd3Q-11" value="" style="image;html=1;image=img/lib/clip_art/computers/Netbook_128x128.png" parent="1" vertex="1">
          <mxGeometry x="747" y="50" width="80" height="80" as="geometry" />
        </mxCell>
        <mxCell id="nFjdNCl31MVFiGdKLd3Q-12" value="" style="image;html=1;image=img/lib/clip_art/computers/Netbook_128x128.png" parent="1" vertex="1">
          <mxGeometry x="300" width="80" height="80" as="geometry" />
        </mxCell>
        <mxCell id="nFjdNCl31MVFiGdKLd3Q-23" style="edgeStyle=orthogonalEdgeStyle;rounded=0;orthogonalLoop=1;jettySize=auto;html=1;exitX=0.985;exitY=0.85;exitDx=0;exitDy=0;exitPerimeter=0;strokeColor=#3399FF;" parent="1" source="nFjdNCl31MVFiGdKLd3Q-13" target="nFjdNCl31MVFiGdKLd3Q-15" edge="1">
          <mxGeometry relative="1" as="geometry">
            <mxPoint x="300" y="320" as="targetPoint" />
            <mxPoint x="120" y="400" as="sourcePoint" />
            <Array as="points">
              <mxPoint x="79" y="400" />
              <mxPoint x="330" y="400" />
            </Array>
          </mxGeometry>
        </mxCell>
        <mxCell id="nFjdNCl31MVFiGdKLd3Q-13" value="" style="image;html=1;image=img/lib/clip_art/computers/Printer_128x128.png" parent="1" vertex="1">
          <mxGeometry y="330" width="80" height="80" as="geometry" />
        </mxCell>
        <mxCell id="nFjdNCl31MVFiGdKLd3Q-3" value="" style="image;html=1;image=img/lib/clip_art/computers/Netbook_128x128.png" parent="1" vertex="1">
          <mxGeometry x="760" y="280" width="80" height="80" as="geometry" />
        </mxCell>
        <mxCell id="nFjdNCl31MVFiGdKLd3Q-48" value="" style="image;html=1;image=img/lib/clip_art/computers/Netbook_128x128.png" parent="1" vertex="1">
          <mxGeometry x="600" width="80" height="80" as="geometry" />
        </mxCell>
        <mxCell id="nFjdNCl31MVFiGdKLd3Q-56" value="&lt;b&gt;&lt;font color=&quot;#3399ff&quot;&gt;Clínica - Topologia Estrela&lt;/font&gt;&lt;/b&gt;" style="text;strokeColor=none;align=center;fillColor=none;html=1;verticalAlign=middle;whiteSpace=wrap;rounded=0;" parent="1" vertex="1">
          <mxGeometry x="10" y="10" width="180" height="30" as="geometry" />
        </mxCell>
      </root>
    </mxGraphModel>
  </diagram>
</mxfile>
